<svg enable-background="new 0 0 32 32" viewBox="0 0 32 32" xmlns="http://www.w3.org/2000/svg"><path d="m4.41 2.84 10.64 13.98-11.61 12.62" fill="none" stroke="#231f20" stroke-miterlimit="10" stroke-width=".9466"/><path d="m27.59 2.85-10.64 13.98 11.61 12.62" fill="none" stroke="#231f20" stroke-miterlimit="10" stroke-width=".9466"/><g fill="#8a8fa4"><path d="m14.38 11.94h2.88c.5 0 .78.57.47.97l-1.4 1.8c-.24.3-.69.31-.93.01l-1.48-1.8c-.33-.39-.05-.98.46-.98z"/><path d="m15.16 19.9-7.04 8.24h15.34l-6.62-8.21c-.42-.54-1.23-.55-1.68-.03z"/><path d="m29.49 30.55h-26.98c-.77 0-1.39-.62-1.39-1.39 0-.77.62-1.39 1.39-1.39h26.99c.77 0 1.39.62 1.39 1.39 0 .77-.63 1.39-1.4 1.39z" stroke="#231f20" stroke-miterlimit="10" stroke-width=".9466"/><path d="m29.49 4.24h-26.98c-.77 0-1.39-.62-1.39-1.39 0-.77.62-1.39 1.39-1.39h26.99c.77 0 1.39.62 1.39 1.39 0 .76-.63 1.39-1.4 1.39z" stroke="#231f20" stroke-miterlimit="10" stroke-width=".9466"/></g></svg>