<svg enable-background="new 0 0 32 32" viewBox="0 0 32 32" xmlns="http://www.w3.org/2000/svg"><g transform="translate(-14 8)"><g fill="#8a8fa4"><path d="m30-6.5c-7.88-.01-14.37 6.24-14.57 14.12-.21 8 6.14 14.66 14.19 14.87s14.74-6.11 14.95-14.11-6.14-14.66-14.19-14.87c-.13-.01-.25-.01-.38-.01zm.59 14.33c3.67.28 6.6 3.3 6.7 7.07.09 3.29-2.01 6.12-4.97 7.1-.57.29-1.43.43-2.7.39-7.99-.21-14.3-6.82-14.09-14.77.21-7.82 6.65-14.02 14.47-14.02h.37" stroke="#231f20" stroke-miterlimit="10" stroke-width=".9062"/><path d="m30.5-6.46c-.06 0-.12 0-.19 0-4.01.1-7.18 3.39-7.07 7.34s3.44 7.06 7.45 6.96" stroke="#231f20" stroke-miterlimit="10" stroke-width=".9062"/><path d="m32.29 15.19c.03 1.26-.98 2.31-2.25 2.34s-2.31-.98-2.34-2.24.98-2.31 2.25-2.34 2.32.98 2.34 2.24l-2.29.06z"/></g><path d="m32.29.64c.03 1.26-.98 2.31-2.25 2.34s-2.31-.98-2.33-2.24.98-2.31 2.25-2.34c1.26-.02 2.31.98 2.33 2.24l-2.29.06z" fill="#fff"/></g></svg>