<?xml version="1.0" standalone="no"?>
<!DOCTYPE svg PUBLIC "-//W3C//DTD SVG 20010904//EN"
 "http://www.w3.org/TR/2001/REC-SVG-20010904/DTD/svg10.dtd">
<svg version="1.0" xmlns="http://www.w3.org/2000/svg"
 width="500.000000pt" height="500.000000pt" viewBox="0 0 500.000000 500.000000"
 preserveAspectRatio="xMidYMid meet">

<g transform="translate(0.000000,500.000000) scale(0.100000,-0.100000)"
fill="#000000" stroke="none">
<path d="M0 2500 l0 -2500 2500 0 2500 0 0 2500 0 2500 -2500 0 -2500 0 0
-2500z m2700 1632 c438 -64 743 -196 963 -417 235 -235 361 -516 408 -908 18
-150 7 -485 -21 -622 -57 -287 -168 -521 -342 -725 -216 -252 -566 -447 -935
-519 -218 -43 -248 -44 -1090 -45 l-813 -1 0 46 0 46 91 12 c148 19 196 47
226 135 17 48 18 131 18 1386 0 1063 -3 1344 -13 1378 -29 94 -101 139 -244
149 l-78 6 0 46 0 46 873 -1 c639 0 895 -3 957 -12z"/>
<path d="M2134 4047 c-118 -31 -155 -84 -174 -248 -8 -64 -10 -492 -8 -1339 3
-1153 5 -1249 21 -1305 10 -33 26 -71 36 -85 48 -66 174 -97 359 -86 250 14
443 87 576 219 188 186 288 432 342 838 22 164 30 660 15 841 -39 450 -138
732 -325 926 -111 115 -228 180 -400 223 -104 26 -366 35 -442 16z"/>
</g>
</svg>
